<svg width="1776" height="1169" viewBox="0 0 1776 1169" fill="none" xmlns="http://www.w3.org/2000/svg">
<g filter="url(#filter0_d_71_3)">
<rect x="694" y="119" width="403" height="102" rx="30" fill="white"/>
<rect x="694" y="348" width="403" height="102" rx="30" fill="white"/>
<rect x="141" y="577" width="403" height="102" rx="30" fill="white"/>
<rect x="694" y="577" width="403" height="102" rx="30" fill="white"/>
<rect x="127" y="806" width="1523" height="102" rx="30" fill="white"/>
<rect x="1247" y="577" width="403" height="102" rx="30" fill="white"/>
<rect x="4" y="1059" width="403" height="102" rx="30" fill="white"/>
<rect x="459" y="1058" width="403" height="102" rx="30" fill="white"/>
<rect x="914" y="1058" width="403" height="102" rx="30" fill="white"/>
<rect x="1369" y="1059" width="403" height="102" rx="30" fill="white"/>
<line x1="894.5" y1="347.988" x2="895.5" y2="220.988" stroke="black" stroke-width="3"/>
<line x1="892.5" y1="576.988" x2="893.5" y2="449.988" stroke="black" stroke-width="3"/>
<line x1="340.5" y1="577" x2="340.5" y2="513" stroke="black" stroke-width="3"/>
<line x1="1447.5" y1="577" x2="1447.5" y2="513" stroke="black" stroke-width="3"/>
<line x1="891.5" y1="805.988" x2="892.5" y2="678.988" stroke="black" stroke-width="3"/>
<line x1="338.5" y1="804.988" x2="339.5" y2="677.988" stroke="black" stroke-width="3"/>
<line x1="1447.5" y1="805.988" x2="1448.5" y2="678.988" stroke="black" stroke-width="3"/>
<line x1="1449" y1="514.5" x2="342" y2="514.5" stroke="black" stroke-width="3"/>
<path d="M681.453 46.0586C680.971 46.0586 680.62 46 680.398 45.8828C680.177 45.7526 680.066 45.5573 680.066 45.2969V24.3398H673.387C673.139 24.3398 672.964 24.2552 672.859 24.0859C672.755 23.9167 672.703 23.6562 672.703 23.3047V22.7383C672.703 22.3737 672.755 22.1133 672.859 21.957C672.964 21.7878 673.139 21.7031 673.387 21.7031H689.676C689.923 21.7031 690.099 21.7878 690.203 21.957C690.307 22.1133 690.359 22.3737 690.359 22.7383V23.3047C690.359 23.6562 690.307 23.9167 690.203 24.0859C690.099 24.2552 689.923 24.3398 689.676 24.3398H683.133V45.2969C683.133 45.8047 682.664 46.0586 681.727 46.0586H681.453ZM695.828 46.0586C694.891 46.0586 694.422 45.8047 694.422 45.2969V22.3867C694.422 21.8659 694.891 21.6055 695.828 21.6055H696.102C697.026 21.6055 697.488 21.8659 697.488 22.3867V32.2109H710.066V22.3867C710.066 21.8659 710.529 21.6055 711.453 21.6055H711.727C712.651 21.6055 713.113 21.8659 713.113 22.3867V45.2969C713.113 45.5573 713.003 45.7526 712.781 45.8828C712.56 46 712.208 46.0586 711.727 46.0586H711.453C710.971 46.0586 710.62 46 710.398 45.8828C710.177 45.7526 710.066 45.5573 710.066 45.2969V34.8477H697.488V45.2969C697.488 45.8047 697.026 46.0586 696.102 46.0586H695.828ZM720.945 46C720.581 46 720.314 45.9154 720.145 45.7461C719.975 45.5768 719.891 45.3164 719.891 44.9648V22.7383C719.891 22.3737 719.975 22.1133 720.145 21.957C720.314 21.7878 720.581 21.7031 720.945 21.7031H733.055C733.302 21.7031 733.478 21.7812 733.582 21.9375C733.699 22.0938 733.758 22.3607 733.758 22.7383V23.3047C733.758 23.6562 733.699 23.9167 733.582 24.0859C733.478 24.2552 733.302 24.3398 733.055 24.3398H722.957V32.25H732.02C732.267 32.25 732.443 32.3346 732.547 32.5039C732.664 32.6732 732.723 32.9401 732.723 33.3047V33.832C732.723 34.1966 732.664 34.4635 732.547 34.6328C732.443 34.7891 732.267 34.8672 732.02 34.8672H722.957V43.3633H733.094C733.341 43.3633 733.517 43.4479 733.621 43.6172C733.738 43.7734 733.797 44.0339 733.797 44.3984V44.9648C733.797 45.3164 733.738 45.5768 733.621 45.7461C733.517 45.9154 733.341 46 733.094 46H720.945ZM748.641 46.0586C747.703 46.0586 747.234 45.8047 747.234 45.2969V22.3867C747.234 21.8659 747.703 21.6055 748.641 21.6055H748.914C749.839 21.6055 750.301 21.8659 750.301 22.3867V32.2109H762.879V22.3867C762.879 21.8659 763.341 21.6055 764.266 21.6055H764.539C765.464 21.6055 765.926 21.8659 765.926 22.3867V45.2969C765.926 45.5573 765.815 45.7526 765.594 45.8828C765.372 46 765.021 46.0586 764.539 46.0586H764.266C763.784 46.0586 763.432 46 763.211 45.8828C762.99 45.7526 762.879 45.5573 762.879 45.2969V34.8477H750.301V45.2969C750.301 45.8047 749.839 46.0586 748.914 46.0586H748.641ZM774.109 46.0586C773.172 46.0586 772.703 45.8047 772.703 45.2969V22.3867C772.703 21.8659 773.172 21.6055 774.109 21.6055H774.383C775.307 21.6055 775.77 21.8659 775.77 22.3867V45.2969C775.77 45.8047 775.307 46.0586 774.383 46.0586H774.109ZM783.562 46C783.198 46 782.931 45.9154 782.762 45.7461C782.592 45.5768 782.508 45.3164 782.508 44.9648V22.7383C782.508 22.3737 782.592 22.1133 782.762 21.957C782.931 21.7878 783.198 21.7031 783.562 21.7031H795.672C795.919 21.7031 796.095 21.7812 796.199 21.9375C796.316 22.0938 796.375 22.3607 796.375 22.7383V23.3047C796.375 23.6562 796.316 23.9167 796.199 24.0859C796.095 24.2552 795.919 24.3398 795.672 24.3398H785.574V32.25H794.637C794.884 32.25 795.06 32.3346 795.164 32.5039C795.281 32.6732 795.34 32.9401 795.34 33.3047V33.832C795.34 34.1966 795.281 34.4635 795.164 34.6328C795.06 34.7891 794.884 34.8672 794.637 34.8672H785.574V43.3633H795.711C795.958 43.3633 796.134 43.4479 796.238 43.6172C796.355 43.7734 796.414 44.0339 796.414 44.3984V44.9648C796.414 45.3164 796.355 45.5768 796.238 45.7461C796.134 45.9154 795.958 46 795.711 46H783.562ZM802.898 46.0586C801.961 46.0586 801.492 45.8047 801.492 45.2969V22.7383C801.492 22.3737 801.577 22.1133 801.746 21.957C801.915 21.7878 802.182 21.7031 802.547 21.7031H808.387C811.16 21.7031 813.243 22.1914 814.637 23.168C816.043 24.1445 816.746 25.7005 816.746 27.8359C816.746 29.2812 816.395 30.4987 815.691 31.4883C815.001 32.4648 814.025 33.2005 812.762 33.6953V33.832C813.439 34.0664 813.992 34.5221 814.422 35.1992C814.865 35.8633 815.353 36.8529 815.887 38.168L818.602 45.0234C818.667 45.2578 818.699 45.4206 818.699 45.5117C818.699 45.8763 818.211 46.0586 817.234 46.0586H816.883C816.531 46.0586 816.225 46.013 815.965 45.9219C815.717 45.8177 815.561 45.681 815.496 45.5117L812.859 38.6953C812.521 37.8099 812.124 37.1198 811.668 36.625C811.212 36.1302 810.672 35.7852 810.047 35.5898C809.422 35.3945 808.634 35.2969 807.684 35.2969H804.559V45.2969C804.559 45.8047 804.096 46.0586 803.172 46.0586H802.898ZM809.129 32.6602C809.949 32.6602 810.698 32.4648 811.375 32.0742C812.065 31.6836 812.605 31.1628 812.996 30.5117C813.4 29.8477 813.602 29.1445 813.602 28.4023C813.602 27.0352 813.185 26.0195 812.352 25.3555C811.518 24.6784 810.366 24.3398 808.895 24.3398H804.559V32.6602H809.129ZM821.258 46.0586C820.737 46.0586 820.359 46.013 820.125 45.9219C819.891 45.8177 819.773 45.668 819.773 45.4727C819.773 45.3815 819.806 45.2253 819.871 45.0039L828.094 22.1719C828.224 21.7943 828.686 21.6055 829.48 21.6055H830.496C831.29 21.6055 831.753 21.7943 831.883 22.1719L840.105 45.0234C840.171 45.1667 840.203 45.3164 840.203 45.4727C840.203 45.8633 839.715 46.0586 838.738 46.0586H838.445C837.638 46.0586 837.169 45.8763 837.039 45.5117L835.008 39.8086H824.812L822.82 45.5117C822.703 45.8763 822.241 46.0586 821.434 46.0586H821.258ZM834.07 37.1719L830.438 26.8398C830.333 26.5534 830.249 26.2279 830.184 25.8633C830.118 25.4987 830.06 25.1471 830.008 24.8086H829.93C829.773 25.681 829.598 26.3581 829.402 26.8398L825.77 37.1719H834.07ZM845.398 46.0586C844.461 46.0586 843.992 45.8047 843.992 45.2969V22.7383C843.992 22.3737 844.077 22.1133 844.246 21.957C844.415 21.7878 844.682 21.7031 845.047 21.7031H850.887C853.66 21.7031 855.743 22.1914 857.137 23.168C858.543 24.1445 859.246 25.7005 859.246 27.8359C859.246 29.2812 858.895 30.4987 858.191 31.4883C857.501 32.4648 856.525 33.2005 855.262 33.6953V33.832C855.939 34.0664 856.492 34.5221 856.922 35.1992C857.365 35.8633 857.853 36.8529 858.387 38.168L861.102 45.0234C861.167 45.2578 861.199 45.4206 861.199 45.5117C861.199 45.8763 860.711 46.0586 859.734 46.0586H859.383C859.031 46.0586 858.725 46.013 858.465 45.9219C858.217 45.8177 858.061 45.681 857.996 45.5117L855.359 38.6953C855.021 37.8099 854.624 37.1198 854.168 36.625C853.712 36.1302 853.172 35.7852 852.547 35.5898C851.922 35.3945 851.134 35.2969 850.184 35.2969H847.059V45.2969C847.059 45.8047 846.596 46.0586 845.672 46.0586H845.398ZM851.629 32.6602C852.449 32.6602 853.198 32.4648 853.875 32.0742C854.565 31.6836 855.105 31.1628 855.496 30.5117C855.9 29.8477 856.102 29.1445 856.102 28.4023C856.102 27.0352 855.685 26.0195 854.852 25.3555C854.018 24.6784 852.866 24.3398 851.395 24.3398H847.059V32.6602H851.629ZM875.008 46.1953C871.206 46.1953 868.393 45.1927 866.57 43.1875C864.747 41.1823 863.836 38.0638 863.836 33.832C863.836 25.5898 867.579 21.4688 875.066 21.4688C876.16 21.4688 877.221 21.5859 878.25 21.8203C879.279 22.0417 880.112 22.3216 880.75 22.6602C881.388 22.9987 881.707 23.3242 881.707 23.6367C881.707 23.832 881.635 24.0924 881.492 24.418C881.362 24.7435 881.206 25.0299 881.023 25.2773C880.841 25.5247 880.678 25.6484 880.535 25.6484C880.47 25.6484 880.288 25.5638 879.988 25.3945C879.311 25.0299 878.602 24.724 877.859 24.4766C877.117 24.2292 876.212 24.1055 875.145 24.1055C872.345 24.1055 870.281 24.8867 868.953 26.4492C867.638 27.9987 866.98 30.4727 866.98 33.8711C866.98 37.1914 867.632 39.6393 868.934 41.2148C870.249 42.7773 872.273 43.5586 875.008 43.5586C876.154 43.5586 877.137 43.4219 877.957 43.1484C878.777 42.875 879.565 42.5365 880.32 42.1328C880.685 41.9375 880.906 41.8398 880.984 41.8398C881.128 41.8398 881.29 41.9635 881.473 42.2109C881.668 42.4583 881.837 42.7383 881.98 43.0508C882.124 43.3503 882.195 43.5651 882.195 43.6953C882.195 44.0208 881.863 44.3854 881.199 44.7891C880.548 45.1797 879.669 45.5117 878.562 45.7852C877.469 46.0586 876.284 46.1953 875.008 46.1953ZM888.133 46.0586C887.195 46.0586 886.727 45.8047 886.727 45.2969V22.3867C886.727 21.8659 887.195 21.6055 888.133 21.6055H888.406C889.331 21.6055 889.793 21.8659 889.793 22.3867V32.2109H902.371V22.3867C902.371 21.8659 902.833 21.6055 903.758 21.6055H904.031C904.956 21.6055 905.418 21.8659 905.418 22.3867V45.2969C905.418 45.5573 905.307 45.7526 905.086 45.8828C904.865 46 904.513 46.0586 904.031 46.0586H903.758C903.276 46.0586 902.924 46 902.703 45.8828C902.482 45.7526 902.371 45.5573 902.371 45.2969V34.8477H889.793V45.2969C889.793 45.8047 889.331 46.0586 888.406 46.0586H888.133ZM918.387 46.0586C917.462 46.0586 917 45.8047 917 45.2969V33.5391L909.734 22.8359C909.552 22.5885 909.461 22.3802 909.461 22.2109C909.461 21.8073 909.995 21.6055 911.062 21.6055H911.434C911.824 21.6055 912.137 21.6445 912.371 21.7227C912.618 21.8008 912.807 21.9375 912.938 22.1328L918.641 30.668L924.461 22.1133C924.669 21.7747 925.19 21.6055 926.023 21.6055H926.258C926.74 21.6315 927.085 21.6966 927.293 21.8008C927.514 21.8919 927.625 22.0286 927.625 22.2109C927.625 22.3281 927.527 22.5365 927.332 22.8359L920.066 33.6367V45.2969C920.066 45.8047 919.598 46.0586 918.66 46.0586H918.387ZM949.285 46.1953C945.809 46.1953 943.159 45.1406 941.336 43.0312C939.513 40.9219 938.602 37.8359 938.602 33.7734C938.602 29.724 939.507 26.6641 941.316 24.5938C943.139 22.5104 945.796 21.4688 949.285 21.4688C952.788 21.4688 955.451 22.5104 957.273 24.5938C959.096 26.6641 960.008 29.724 960.008 33.7734C960.008 37.8359 959.096 40.9219 957.273 43.0312C955.451 45.1406 952.788 46.1953 949.285 46.1953ZM949.285 43.5586C951.733 43.5586 953.608 42.7253 954.91 41.0586C956.212 39.3789 956.863 36.9505 956.863 33.7734C956.863 30.5964 956.212 28.194 954.91 26.5664C953.621 24.9258 951.746 24.1055 949.285 24.1055C946.837 24.1055 944.969 24.9258 943.68 26.5664C942.391 28.194 941.746 30.5964 941.746 33.7734C941.746 36.9635 942.391 39.3919 943.68 41.0586C944.969 42.7253 946.837 43.5586 949.285 43.5586ZM966.766 46.0586C965.828 46.0586 965.359 45.8047 965.359 45.2969V22.7383C965.359 22.3737 965.444 22.1133 965.613 21.957C965.783 21.7878 966.049 21.7031 966.414 21.7031H977.352C977.599 21.7031 977.775 21.7878 977.879 21.957C977.983 22.1133 978.035 22.3737 978.035 22.7383V23.3047C978.035 23.6562 977.983 23.9167 977.879 24.0859C977.775 24.2552 977.599 24.3398 977.352 24.3398H968.426V32.25H976.727C976.961 32.25 977.137 32.3346 977.254 32.5039C977.371 32.6732 977.43 32.9401 977.43 33.3047V33.832C977.43 34.1966 977.371 34.4635 977.254 34.6328C977.137 34.7891 976.961 34.8672 976.727 34.8672H968.426V45.2969C968.426 45.8047 967.964 46.0586 967.039 46.0586H966.766ZM997.273 46.0586C996.792 46.0586 996.44 46 996.219 45.8828C995.997 45.7526 995.887 45.5573 995.887 45.2969V24.3398H989.207C988.96 24.3398 988.784 24.2552 988.68 24.0859C988.576 23.9167 988.523 23.6562 988.523 23.3047V22.7383C988.523 22.3737 988.576 22.1133 988.68 21.957C988.784 21.7878 988.96 21.7031 989.207 21.7031H1005.5C1005.74 21.7031 1005.92 21.7878 1006.02 21.957C1006.13 22.1133 1006.18 22.3737 1006.18 22.7383V23.3047C1006.18 23.6562 1006.13 23.9167 1006.02 24.0859C1005.92 24.2552 1005.74 24.3398 1005.5 24.3398H998.953V45.2969C998.953 45.8047 998.484 46.0586 997.547 46.0586H997.273ZM1011.65 46.0586C1010.71 46.0586 1010.24 45.8047 1010.24 45.2969V22.3867C1010.24 21.8659 1010.71 21.6055 1011.65 21.6055H1011.92C1012.85 21.6055 1013.31 21.8659 1013.31 22.3867V32.2109H1025.89V22.3867C1025.89 21.8659 1026.35 21.6055 1027.27 21.6055H1027.55C1028.47 21.6055 1028.93 21.8659 1028.93 22.3867V45.2969C1028.93 45.5573 1028.82 45.7526 1028.6 45.8828C1028.38 46 1028.03 46.0586 1027.55 46.0586H1027.27C1026.79 46.0586 1026.44 46 1026.22 45.8828C1026 45.7526 1025.89 45.5573 1025.89 45.2969V34.8477H1013.31V45.2969C1013.31 45.8047 1012.85 46.0586 1011.92 46.0586H1011.65ZM1036.77 46C1036.4 46 1036.13 45.9154 1035.96 45.7461C1035.8 45.5768 1035.71 45.3164 1035.71 44.9648V22.7383C1035.71 22.3737 1035.8 22.1133 1035.96 21.957C1036.13 21.7878 1036.4 21.7031 1036.77 21.7031H1048.88C1049.12 21.7031 1049.3 21.7812 1049.4 21.9375C1049.52 22.0938 1049.58 22.3607 1049.58 22.7383V23.3047C1049.58 23.6562 1049.52 23.9167 1049.4 24.0859C1049.3 24.2552 1049.12 24.3398 1048.88 24.3398H1038.78V32.25H1047.84C1048.09 32.25 1048.26 32.3346 1048.37 32.5039C1048.48 32.6732 1048.54 32.9401 1048.54 33.3047V33.832C1048.54 34.1966 1048.48 34.4635 1048.37 34.6328C1048.26 34.7891 1048.09 34.8672 1047.84 34.8672H1038.78V43.3633H1048.91C1049.16 43.3633 1049.34 43.4479 1049.44 43.6172C1049.56 43.7734 1049.62 44.0339 1049.62 44.3984V44.9648C1049.62 45.3164 1049.56 45.5768 1049.44 45.7461C1049.34 45.9154 1049.16 46 1048.91 46H1036.77ZM1064.23 46.0586C1063.73 46.0586 1063.37 46 1063.15 45.8828C1062.93 45.7526 1062.82 45.5573 1062.82 45.2969V22.3867C1062.82 21.8659 1063.29 21.6055 1064.23 21.6055H1065.46C1066.23 21.6055 1066.71 21.8203 1066.92 22.25L1073.48 33.6367L1074.38 35.8242L1075.28 33.832L1081.86 22.25C1082.08 21.8203 1082.57 21.6055 1083.31 21.6055H1084.46C1085.39 21.6055 1085.85 21.8659 1085.85 22.3867V45.2969C1085.85 45.8047 1085.39 46.0586 1084.46 46.0586H1084.23C1083.73 46.0586 1083.37 46 1083.15 45.8828C1082.93 45.7526 1082.82 45.5573 1082.82 45.2969V26.6055L1082.76 26.7617L1075.85 38.7734C1075.76 38.9297 1075.65 39.0469 1075.54 39.125C1075.42 39.1901 1075.27 39.2227 1075.09 39.2227H1073.7C1073.35 39.2227 1073.09 39.0729 1072.92 38.7734L1065.85 26.4102V45.2969C1065.85 45.8047 1065.39 46.0586 1064.46 46.0586H1064.23ZM1093.72 46.0586C1092.78 46.0586 1092.31 45.8047 1092.31 45.2969V22.3867C1092.31 21.8659 1092.78 21.6055 1093.72 21.6055H1093.99C1094.92 21.6055 1095.38 21.8659 1095.38 22.3867V33.0117H1095.52L1104.05 22.1133C1104.21 21.944 1104.45 21.8203 1104.79 21.7422C1105.14 21.651 1105.53 21.6055 1105.95 21.6055H1106.28C1106.67 21.6055 1106.97 21.651 1107.18 21.7422C1107.38 21.8333 1107.49 21.944 1107.49 22.0742C1107.49 22.2826 1107.38 22.5169 1107.16 22.7773L1098.48 33.5977L1108.99 45.0234C1109.2 45.2448 1109.3 45.4271 1109.3 45.5703C1109.3 45.7656 1109.19 45.8958 1108.95 45.9609C1108.73 46.026 1108.34 46.0586 1107.78 46.0586H1107.35C1106.86 46.0586 1106.46 46.0326 1106.16 45.9805C1105.87 45.9284 1105.64 45.8047 1105.46 45.6094L1095.52 34.4375H1095.38V45.2969C1095.38 45.8047 1094.92 46.0586 1093.99 46.0586H1093.72Z" fill="white"/>
<path d="M851.766 180.059C850.828 180.059 850.359 179.805 850.359 179.297V156.387C850.359 155.866 850.828 155.605 851.766 155.605H852.039C852.964 155.605 853.426 155.866 853.426 156.387V166.211H866.004V156.387C866.004 155.866 866.466 155.605 867.391 155.605H867.664C868.589 155.605 869.051 155.866 869.051 156.387V179.297C869.051 179.557 868.94 179.753 868.719 179.883C868.497 180 868.146 180.059 867.664 180.059H867.391C866.909 180.059 866.557 180 866.336 179.883C866.115 179.753 866.004 179.557 866.004 179.297V168.848H853.426V179.297C853.426 179.805 852.964 180.059 852.039 180.059H851.766ZM876.883 180C876.518 180 876.251 179.915 876.082 179.746C875.913 179.577 875.828 179.316 875.828 178.965V156.738C875.828 156.374 875.913 156.113 876.082 155.957C876.251 155.788 876.518 155.703 876.883 155.703H888.992C889.24 155.703 889.415 155.781 889.52 155.938C889.637 156.094 889.695 156.361 889.695 156.738V157.305C889.695 157.656 889.637 157.917 889.52 158.086C889.415 158.255 889.24 158.34 888.992 158.34H878.895V166.25H887.957C888.204 166.25 888.38 166.335 888.484 166.504C888.602 166.673 888.66 166.94 888.66 167.305V167.832C888.66 168.197 888.602 168.464 888.484 168.633C888.38 168.789 888.204 168.867 887.957 168.867H878.895V177.363H889.031C889.279 177.363 889.454 177.448 889.559 177.617C889.676 177.773 889.734 178.034 889.734 178.398V178.965C889.734 179.316 889.676 179.577 889.559 179.746C889.454 179.915 889.279 180 889.031 180H876.883ZM893.367 180.059C892.846 180.059 892.469 180.013 892.234 179.922C892 179.818 891.883 179.668 891.883 179.473C891.883 179.382 891.915 179.225 891.98 179.004L900.203 156.172C900.333 155.794 900.796 155.605 901.59 155.605H902.605C903.4 155.605 903.862 155.794 903.992 156.172L912.215 179.023C912.28 179.167 912.312 179.316 912.312 179.473C912.312 179.863 911.824 180.059 910.848 180.059H910.555C909.747 180.059 909.279 179.876 909.148 179.512L907.117 173.809H896.922L894.93 179.512C894.812 179.876 894.35 180.059 893.543 180.059H893.367ZM906.18 171.172L902.547 160.84C902.443 160.553 902.358 160.228 902.293 159.863C902.228 159.499 902.169 159.147 902.117 158.809H902.039C901.883 159.681 901.707 160.358 901.512 160.84L897.879 171.172H906.18ZM917.156 180C916.792 180 916.525 179.915 916.355 179.746C916.186 179.577 916.102 179.316 916.102 178.965V156.738C916.102 156.374 916.186 156.113 916.355 155.957C916.525 155.788 916.792 155.703 917.156 155.703H924.168C927.423 155.703 930.027 156.667 931.98 158.594C933.934 160.521 934.91 163.6 934.91 167.832C934.91 172.09 933.934 175.182 931.98 177.109C930.027 179.036 927.423 180 924.168 180H917.156ZM923.934 177.363C926.277 177.363 928.165 176.602 929.598 175.078C931.03 173.542 931.746 171.126 931.746 167.832C931.746 165.618 931.408 163.809 930.73 162.402C930.053 160.983 929.129 159.954 927.957 159.316C926.785 158.665 925.444 158.34 923.934 158.34H919.168V177.363H923.934Z" fill="black"/>
<path d="M816.176 417.059C815.368 417.059 814.906 416.876 814.789 416.512L806.84 393.66C806.762 393.504 806.723 393.354 806.723 393.211C806.723 393.029 806.846 392.885 807.094 392.781C807.354 392.664 807.732 392.605 808.227 392.605H808.539C809.333 392.605 809.796 392.794 809.926 393.172L816.352 411.707L816.703 413.523H816.801L817.191 411.668L823.598 393.172C823.741 392.794 824.21 392.605 825.004 392.605H825.199C826.202 392.605 826.703 392.807 826.703 393.211C826.703 393.341 826.664 393.504 826.586 393.699L818.637 416.512C818.52 416.876 818.057 417.059 817.25 417.059H816.176ZM832.211 417.059C831.273 417.059 830.805 416.805 830.805 416.297V393.387C830.805 392.866 831.273 392.605 832.211 392.605H832.484C833.409 392.605 833.871 392.866 833.871 393.387V416.297C833.871 416.805 833.409 417.059 832.484 417.059H832.211ZM850.414 417.195C846.612 417.195 843.799 416.193 841.977 414.188C840.154 412.182 839.242 409.064 839.242 404.832C839.242 396.59 842.986 392.469 850.473 392.469C851.566 392.469 852.628 392.586 853.656 392.82C854.685 393.042 855.518 393.322 856.156 393.66C856.794 393.999 857.113 394.324 857.113 394.637C857.113 394.832 857.042 395.092 856.898 395.418C856.768 395.743 856.612 396.03 856.43 396.277C856.247 396.525 856.085 396.648 855.941 396.648C855.876 396.648 855.694 396.564 855.395 396.395C854.717 396.03 854.008 395.724 853.266 395.477C852.523 395.229 851.618 395.105 850.551 395.105C847.751 395.105 845.688 395.887 844.359 397.449C843.044 398.999 842.387 401.473 842.387 404.871C842.387 408.191 843.038 410.639 844.34 412.215C845.655 413.777 847.68 414.559 850.414 414.559C851.56 414.559 852.543 414.422 853.363 414.148C854.184 413.875 854.971 413.536 855.727 413.133C856.091 412.938 856.312 412.84 856.391 412.84C856.534 412.84 856.697 412.964 856.879 413.211C857.074 413.458 857.243 413.738 857.387 414.051C857.53 414.35 857.602 414.565 857.602 414.695C857.602 415.021 857.27 415.385 856.605 415.789C855.954 416.18 855.076 416.512 853.969 416.785C852.875 417.059 851.69 417.195 850.414 417.195ZM863.188 417C862.823 417 862.556 416.915 862.387 416.746C862.217 416.577 862.133 416.316 862.133 415.965V393.738C862.133 393.374 862.217 393.113 862.387 392.957C862.556 392.788 862.823 392.703 863.188 392.703H875.297C875.544 392.703 875.72 392.781 875.824 392.938C875.941 393.094 876 393.361 876 393.738V394.305C876 394.656 875.941 394.917 875.824 395.086C875.72 395.255 875.544 395.34 875.297 395.34H865.199V403.25H874.262C874.509 403.25 874.685 403.335 874.789 403.504C874.906 403.673 874.965 403.94 874.965 404.305V404.832C874.965 405.197 874.906 405.464 874.789 405.633C874.685 405.789 874.509 405.867 874.262 405.867H865.199V414.363H875.336C875.583 414.363 875.759 414.448 875.863 414.617C875.98 414.773 876.039 415.034 876.039 415.398V415.965C876.039 416.316 875.98 416.577 875.863 416.746C875.759 416.915 875.583 417 875.336 417H863.188ZM879.984 409.012C879.737 409.012 879.555 408.934 879.438 408.777C879.333 408.608 879.281 408.341 879.281 407.977V407.605C879.281 407.254 879.333 406.993 879.438 406.824C879.555 406.655 879.737 406.57 879.984 406.57H886.547C886.794 406.57 886.97 406.655 887.074 406.824C887.191 406.993 887.25 407.254 887.25 407.605V407.977C887.25 408.341 887.191 408.608 887.074 408.777C886.97 408.934 886.794 409.012 886.547 409.012H879.984ZM893.656 417.059C892.719 417.059 892.25 416.805 892.25 416.297V393.387C892.25 392.866 892.719 392.605 893.656 392.605H893.93C894.854 392.605 895.316 392.866 895.316 393.387V403.211H907.895V393.387C907.895 392.866 908.357 392.605 909.281 392.605H909.555C910.479 392.605 910.941 392.866 910.941 393.387V416.297C910.941 416.557 910.831 416.753 910.609 416.883C910.388 417 910.036 417.059 909.555 417.059H909.281C908.799 417.059 908.448 417 908.227 416.883C908.005 416.753 907.895 416.557 907.895 416.297V405.848H895.316V416.297C895.316 416.805 894.854 417.059 893.93 417.059H893.656ZM918.773 417C918.409 417 918.142 416.915 917.973 416.746C917.803 416.577 917.719 416.316 917.719 415.965V393.738C917.719 393.374 917.803 393.113 917.973 392.957C918.142 392.788 918.409 392.703 918.773 392.703H930.883C931.13 392.703 931.306 392.781 931.41 392.938C931.527 393.094 931.586 393.361 931.586 393.738V394.305C931.586 394.656 931.527 394.917 931.41 395.086C931.306 395.255 931.13 395.34 930.883 395.34H920.785V403.25H929.848C930.095 403.25 930.271 403.335 930.375 403.504C930.492 403.673 930.551 403.94 930.551 404.305V404.832C930.551 405.197 930.492 405.464 930.375 405.633C930.271 405.789 930.095 405.867 929.848 405.867H920.785V414.363H930.922C931.169 414.363 931.345 414.448 931.449 414.617C931.566 414.773 931.625 415.034 931.625 415.398V415.965C931.625 416.316 931.566 416.577 931.449 416.746C931.345 416.915 931.169 417 930.922 417H918.773ZM935.258 417.059C934.737 417.059 934.359 417.013 934.125 416.922C933.891 416.818 933.773 416.668 933.773 416.473C933.773 416.382 933.806 416.225 933.871 416.004L942.094 393.172C942.224 392.794 942.686 392.605 943.48 392.605H944.496C945.29 392.605 945.753 392.794 945.883 393.172L954.105 416.023C954.171 416.167 954.203 416.316 954.203 416.473C954.203 416.863 953.715 417.059 952.738 417.059H952.445C951.638 417.059 951.169 416.876 951.039 416.512L949.008 410.809H938.812L936.82 416.512C936.703 416.876 936.241 417.059 935.434 417.059H935.258ZM948.07 408.172L944.438 397.84C944.333 397.553 944.249 397.228 944.184 396.863C944.118 396.499 944.06 396.147 944.008 395.809H943.93C943.773 396.681 943.598 397.358 943.402 397.84L939.77 408.172H948.07ZM959.047 417C958.682 417 958.415 416.915 958.246 416.746C958.077 416.577 957.992 416.316 957.992 415.965V393.738C957.992 393.374 958.077 393.113 958.246 392.957C958.415 392.788 958.682 392.703 959.047 392.703H966.059C969.314 392.703 971.918 393.667 973.871 395.594C975.824 397.521 976.801 400.6 976.801 404.832C976.801 409.09 975.824 412.182 973.871 414.109C971.918 416.036 969.314 417 966.059 417H959.047ZM965.824 414.363C968.168 414.363 970.056 413.602 971.488 412.078C972.921 410.542 973.637 408.126 973.637 404.832C973.637 402.618 973.298 400.809 972.621 399.402C971.944 397.983 971.02 396.954 969.848 396.316C968.676 395.665 967.335 395.34 965.824 395.34H961.059V414.363H965.824Z" fill="black"/>
<path d="M749.336 646.059C748.854 646.059 748.503 646 748.281 645.883C748.073 645.753 747.969 645.557 747.969 645.297V622.738C747.969 622.361 748.047 622.094 748.203 621.938C748.372 621.781 748.639 621.703 749.004 621.703H756.035C758.066 621.703 759.863 622.191 761.426 623.168C763.001 624.132 763.789 625.909 763.789 628.5C763.789 630.427 763.34 631.924 762.441 632.992C761.543 634.047 760.534 634.757 759.414 635.121C758.294 635.473 757.285 635.648 756.387 635.648H750.996V645.297C750.996 645.557 750.885 645.753 750.664 645.883C750.443 646 750.098 646.059 749.629 646.059H749.336ZM756.426 633.012C757.012 633.012 757.624 632.888 758.262 632.641C758.9 632.38 759.453 631.918 759.922 631.254C760.391 630.577 760.625 629.659 760.625 628.5C760.625 626.951 760.163 625.87 759.238 625.258C758.327 624.646 757.227 624.34 755.938 624.34H750.996V633.012H756.426ZM777.48 646.195C774.004 646.195 771.354 645.141 769.531 643.031C767.708 640.922 766.797 637.836 766.797 633.773C766.797 629.724 767.702 626.664 769.512 624.594C771.335 622.51 773.991 621.469 777.48 621.469C780.983 621.469 783.646 622.51 785.469 624.594C787.292 626.664 788.203 629.724 788.203 633.773C788.203 637.836 787.292 640.922 785.469 643.031C783.646 645.141 780.983 646.195 777.48 646.195ZM777.48 643.559C779.928 643.559 781.803 642.725 783.105 641.059C784.408 639.379 785.059 636.951 785.059 633.773C785.059 630.596 784.408 628.194 783.105 626.566C781.816 624.926 779.941 624.105 777.48 624.105C775.033 624.105 773.164 624.926 771.875 626.566C770.586 628.194 769.941 630.596 769.941 633.773C769.941 636.964 770.586 639.392 771.875 641.059C773.164 642.725 775.033 643.559 777.48 643.559ZM798.164 646.059C797.305 646.059 796.836 645.876 796.758 645.512L790.82 622.699C790.807 622.634 790.788 622.549 790.762 622.445C790.736 622.341 790.723 622.263 790.723 622.211C790.723 622.029 790.846 621.885 791.094 621.781C791.341 621.664 791.719 621.605 792.227 621.605H792.559C792.936 621.605 793.249 621.651 793.496 621.742C793.743 621.833 793.893 621.977 793.945 622.172L798.359 639.262C798.438 639.6 798.607 640.466 798.867 641.859C798.932 642.263 798.971 642.478 798.984 642.504C799.271 641.306 799.551 640.193 799.824 639.164L804.023 622.211C804.115 621.807 804.564 621.605 805.371 621.605H805.918C806.738 621.605 807.194 621.807 807.285 622.211L811.582 639.301C811.712 639.809 811.836 640.414 811.953 641.117C812.083 641.82 812.161 642.283 812.188 642.504C812.461 641.384 812.741 640.284 813.027 639.203L817.227 622.172C817.318 621.794 817.773 621.605 818.594 621.605H818.809C819.798 621.605 820.293 621.807 820.293 622.211C820.293 622.302 820.26 622.465 820.195 622.699L814.199 645.512C814.095 645.876 813.626 646.059 812.793 646.059H811.387C810.54 646.059 810.078 645.876 810 645.512L806.191 631.371L805.488 626.859L804.746 631.371L800.957 645.512C800.879 645.876 800.423 646.059 799.59 646.059H798.164ZM825.234 646C824.87 646 824.603 645.915 824.434 645.746C824.264 645.577 824.18 645.316 824.18 644.965V622.738C824.18 622.374 824.264 622.113 824.434 621.957C824.603 621.788 824.87 621.703 825.234 621.703H837.344C837.591 621.703 837.767 621.781 837.871 621.938C837.988 622.094 838.047 622.361 838.047 622.738V623.305C838.047 623.656 837.988 623.917 837.871 624.086C837.767 624.255 837.591 624.34 837.344 624.34H827.246V632.25H836.309C836.556 632.25 836.732 632.335 836.836 632.504C836.953 632.673 837.012 632.94 837.012 633.305V633.832C837.012 634.197 836.953 634.464 836.836 634.633C836.732 634.789 836.556 634.867 836.309 634.867H827.246V643.363H837.383C837.63 643.363 837.806 643.448 837.91 643.617C838.027 643.773 838.086 644.034 838.086 644.398V644.965C838.086 645.316 838.027 645.577 837.91 645.746C837.806 645.915 837.63 646 837.383 646H825.234ZM844.57 646.059C843.633 646.059 843.164 645.805 843.164 645.297V622.738C843.164 622.374 843.249 622.113 843.418 621.957C843.587 621.788 843.854 621.703 844.219 621.703H850.059C852.832 621.703 854.915 622.191 856.309 623.168C857.715 624.145 858.418 625.701 858.418 627.836C858.418 629.281 858.066 630.499 857.363 631.488C856.673 632.465 855.697 633.201 854.434 633.695V633.832C855.111 634.066 855.664 634.522 856.094 635.199C856.536 635.863 857.025 636.853 857.559 638.168L860.273 645.023C860.339 645.258 860.371 645.421 860.371 645.512C860.371 645.876 859.883 646.059 858.906 646.059H858.555C858.203 646.059 857.897 646.013 857.637 645.922C857.389 645.818 857.233 645.681 857.168 645.512L854.531 638.695C854.193 637.81 853.796 637.12 853.34 636.625C852.884 636.13 852.344 635.785 851.719 635.59C851.094 635.395 850.306 635.297 849.355 635.297H846.23V645.297C846.23 645.805 845.768 646.059 844.844 646.059H844.57ZM850.801 632.66C851.621 632.66 852.37 632.465 853.047 632.074C853.737 631.684 854.277 631.163 854.668 630.512C855.072 629.848 855.273 629.145 855.273 628.402C855.273 627.035 854.857 626.02 854.023 625.355C853.19 624.678 852.038 624.34 850.566 624.34H846.23V632.66H850.801ZM873.789 646C873.424 646 873.158 645.915 872.988 645.746C872.819 645.577 872.734 645.316 872.734 644.965V622.738C872.734 622.374 872.819 622.113 872.988 621.957C873.158 621.788 873.424 621.703 873.789 621.703H880.801C884.056 621.703 886.66 622.667 888.613 624.594C890.566 626.521 891.543 629.6 891.543 633.832C891.543 638.09 890.566 641.182 888.613 643.109C886.66 645.036 884.056 646 880.801 646H873.789ZM880.566 643.363C882.91 643.363 884.798 642.602 886.23 641.078C887.663 639.542 888.379 637.126 888.379 633.832C888.379 631.618 888.04 629.809 887.363 628.402C886.686 626.983 885.762 625.954 884.59 625.316C883.418 624.665 882.077 624.34 880.566 624.34H875.801V643.363H880.566ZM898.281 646.059C897.344 646.059 896.875 645.805 896.875 645.297V622.387C896.875 621.866 897.344 621.605 898.281 621.605H898.555C899.479 621.605 899.941 621.866 899.941 622.387V645.297C899.941 645.805 899.479 646.059 898.555 646.059H898.281ZM908.086 646.059C907.148 646.059 906.68 645.805 906.68 645.297V622.738C906.68 622.374 906.764 622.113 906.934 621.957C907.103 621.788 907.37 621.703 907.734 621.703H913.574C916.348 621.703 918.431 622.191 919.824 623.168C921.23 624.145 921.934 625.701 921.934 627.836C921.934 629.281 921.582 630.499 920.879 631.488C920.189 632.465 919.212 633.201 917.949 633.695V633.832C918.626 634.066 919.18 634.522 919.609 635.199C920.052 635.863 920.54 636.853 921.074 638.168L923.789 645.023C923.854 645.258 923.887 645.421 923.887 645.512C923.887 645.876 923.398 646.059 922.422 646.059H922.07C921.719 646.059 921.413 646.013 921.152 645.922C920.905 645.818 920.749 645.681 920.684 645.512L918.047 638.695C917.708 637.81 917.311 637.12 916.855 636.625C916.4 636.13 915.859 635.785 915.234 635.59C914.609 635.395 913.822 635.297 912.871 635.297H909.746V645.297C909.746 645.805 909.284 646.059 908.359 646.059H908.086ZM914.316 632.66C915.137 632.66 915.885 632.465 916.562 632.074C917.253 631.684 917.793 631.163 918.184 630.512C918.587 629.848 918.789 629.145 918.789 628.402C918.789 627.035 918.372 626.02 917.539 625.355C916.706 624.678 915.553 624.34 914.082 624.34H909.746V632.66H914.316ZM928.945 646C928.581 646 928.314 645.915 928.145 645.746C927.975 645.577 927.891 645.316 927.891 644.965V622.738C927.891 622.374 927.975 622.113 928.145 621.957C928.314 621.788 928.581 621.703 928.945 621.703H941.055C941.302 621.703 941.478 621.781 941.582 621.938C941.699 622.094 941.758 622.361 941.758 622.738V623.305C941.758 623.656 941.699 623.917 941.582 624.086C941.478 624.255 941.302 624.34 941.055 624.34H930.957V632.25H940.02C940.267 632.25 940.443 632.335 940.547 632.504C940.664 632.673 940.723 632.94 940.723 633.305V633.832C940.723 634.197 940.664 634.464 940.547 634.633C940.443 634.789 940.267 634.867 940.02 634.867H930.957V643.363H941.094C941.341 643.363 941.517 643.448 941.621 643.617C941.738 643.773 941.797 644.034 941.797 644.398V644.965C941.797 645.316 941.738 645.577 941.621 645.746C941.517 645.915 941.341 646 941.094 646H928.945ZM956.68 646.195C952.878 646.195 950.065 645.193 948.242 643.188C946.419 641.182 945.508 638.064 945.508 633.832C945.508 625.59 949.251 621.469 956.738 621.469C957.832 621.469 958.893 621.586 959.922 621.82C960.951 622.042 961.784 622.322 962.422 622.66C963.06 622.999 963.379 623.324 963.379 623.637C963.379 623.832 963.307 624.092 963.164 624.418C963.034 624.743 962.878 625.03 962.695 625.277C962.513 625.525 962.35 625.648 962.207 625.648C962.142 625.648 961.96 625.564 961.66 625.395C960.983 625.03 960.273 624.724 959.531 624.477C958.789 624.229 957.884 624.105 956.816 624.105C954.017 624.105 951.953 624.887 950.625 626.449C949.31 627.999 948.652 630.473 948.652 633.871C948.652 637.191 949.303 639.639 950.605 641.215C951.921 642.777 953.945 643.559 956.68 643.559C957.826 643.559 958.809 643.422 959.629 643.148C960.449 642.875 961.237 642.536 961.992 642.133C962.357 641.938 962.578 641.84 962.656 641.84C962.799 641.84 962.962 641.964 963.145 642.211C963.34 642.458 963.509 642.738 963.652 643.051C963.796 643.35 963.867 643.565 963.867 643.695C963.867 644.021 963.535 644.385 962.871 644.789C962.22 645.18 961.341 645.512 960.234 645.785C959.141 646.059 957.956 646.195 956.68 646.195ZM974.492 646.059C974.01 646.059 973.659 646 973.438 645.883C973.216 645.753 973.105 645.557 973.105 645.297V624.34H966.426C966.178 624.34 966.003 624.255 965.898 624.086C965.794 623.917 965.742 623.656 965.742 623.305V622.738C965.742 622.374 965.794 622.113 965.898 621.957C966.003 621.788 966.178 621.703 966.426 621.703H982.715C982.962 621.703 983.138 621.788 983.242 621.957C983.346 622.113 983.398 622.374 983.398 622.738V623.305C983.398 623.656 983.346 623.917 983.242 624.086C983.138 624.255 982.962 624.34 982.715 624.34H976.172V645.297C976.172 645.805 975.703 646.059 974.766 646.059H974.492ZM988.867 646.059C987.93 646.059 987.461 645.805 987.461 645.297V622.387C987.461 621.866 987.93 621.605 988.867 621.605H989.141C990.065 621.605 990.527 621.866 990.527 622.387V645.297C990.527 645.805 990.065 646.059 989.141 646.059H988.867ZM1006.58 646.195C1003.11 646.195 1000.46 645.141 998.633 643.031C996.81 640.922 995.898 637.836 995.898 633.773C995.898 629.724 996.803 626.664 998.613 624.594C1000.44 622.51 1003.09 621.469 1006.58 621.469C1010.08 621.469 1012.75 622.51 1014.57 624.594C1016.39 626.664 1017.3 629.724 1017.3 633.773C1017.3 637.836 1016.39 640.922 1014.57 643.031C1012.75 645.141 1010.08 646.195 1006.58 646.195ZM1006.58 643.559C1009.03 643.559 1010.9 642.725 1012.21 641.059C1013.51 639.379 1014.16 636.951 1014.16 633.773C1014.16 630.596 1013.51 628.194 1012.21 626.566C1010.92 624.926 1009.04 624.105 1006.58 624.105C1004.13 624.105 1002.27 624.926 1000.98 626.566C999.688 628.194 999.043 630.596 999.043 633.773C999.043 636.964 999.688 639.392 1000.98 641.059C1002.27 642.725 1004.13 643.559 1006.58 643.559ZM1024.06 646.059C1023.12 646.059 1022.66 645.805 1022.66 645.297V622.738C1022.66 622.374 1022.74 622.113 1022.91 621.957C1023.08 621.788 1023.35 621.703 1023.71 621.703H1029.55C1032.32 621.703 1034.41 622.191 1035.8 623.168C1037.21 624.145 1037.91 625.701 1037.91 627.836C1037.91 629.281 1037.56 630.499 1036.86 631.488C1036.17 632.465 1035.19 633.201 1033.93 633.695V633.832C1034.6 634.066 1035.16 634.522 1035.59 635.199C1036.03 635.863 1036.52 636.853 1037.05 638.168L1039.77 645.023C1039.83 645.258 1039.86 645.421 1039.86 645.512C1039.86 645.876 1039.38 646.059 1038.4 646.059H1038.05C1037.7 646.059 1037.39 646.013 1037.13 645.922C1036.88 645.818 1036.73 645.681 1036.66 645.512L1034.02 638.695C1033.68 637.81 1033.29 637.12 1032.83 636.625C1032.38 636.13 1031.84 635.785 1031.21 635.59C1030.59 635.395 1029.8 635.297 1028.85 635.297H1025.72V645.297C1025.72 645.805 1025.26 646.059 1024.34 646.059H1024.06ZM1030.29 632.66C1031.11 632.66 1031.86 632.465 1032.54 632.074C1033.23 631.684 1033.77 631.163 1034.16 630.512C1034.56 629.848 1034.77 629.145 1034.77 628.402C1034.77 627.035 1034.35 626.02 1033.52 625.355C1032.68 624.678 1031.53 624.34 1030.06 624.34H1025.72V632.66H1030.29Z" fill="black"/>
<path d="M815.531 875.059C815.036 875.059 814.678 875 814.457 874.883C814.236 874.753 814.125 874.557 814.125 874.297V851.387C814.125 850.866 814.594 850.605 815.531 850.605H816.762C817.53 850.605 818.018 850.82 818.227 851.25L824.789 862.637L825.688 864.824L826.586 862.832L833.168 851.25C833.389 850.82 833.871 850.605 834.613 850.605H835.766C836.69 850.605 837.152 850.866 837.152 851.387V874.297C837.152 874.805 836.69 875.059 835.766 875.059H835.531C835.036 875.059 834.678 875 834.457 874.883C834.236 874.753 834.125 874.557 834.125 874.297V855.605L834.066 855.762L827.152 867.773C827.061 867.93 826.957 868.047 826.84 868.125C826.723 868.19 826.573 868.223 826.391 868.223H825.004C824.652 868.223 824.392 868.073 824.223 867.773L817.152 855.41V874.297C817.152 874.805 816.69 875.059 815.766 875.059H815.531ZM844.672 875C844.307 875 844.04 874.915 843.871 874.746C843.702 874.577 843.617 874.316 843.617 873.965V851.738C843.617 851.374 843.702 851.113 843.871 850.957C844.04 850.788 844.307 850.703 844.672 850.703H856.781C857.029 850.703 857.204 850.781 857.309 850.938C857.426 851.094 857.484 851.361 857.484 851.738V852.305C857.484 852.656 857.426 852.917 857.309 853.086C857.204 853.255 857.029 853.34 856.781 853.34H846.684V861.25H855.746C855.993 861.25 856.169 861.335 856.273 861.504C856.391 861.673 856.449 861.94 856.449 862.305V862.832C856.449 863.197 856.391 863.464 856.273 863.633C856.169 863.789 855.993 863.867 855.746 863.867H846.684V872.363H856.82C857.068 872.363 857.243 872.448 857.348 872.617C857.465 872.773 857.523 873.034 857.523 873.398V873.965C857.523 874.316 857.465 874.577 857.348 874.746C857.243 874.915 857.068 875 856.82 875H844.672ZM863.773 875.059C863.279 875.059 862.921 875 862.699 874.883C862.478 874.753 862.367 874.557 862.367 874.297V851.387C862.367 850.866 862.836 850.605 863.773 850.605H865.004C865.772 850.605 866.26 850.82 866.469 851.25L873.031 862.637L873.93 864.824L874.828 862.832L881.41 851.25C881.632 850.82 882.113 850.605 882.855 850.605H884.008C884.932 850.605 885.395 850.866 885.395 851.387V874.297C885.395 874.805 884.932 875.059 884.008 875.059H883.773C883.279 875.059 882.921 875 882.699 874.883C882.478 874.753 882.367 874.557 882.367 874.297V855.605L882.309 855.762L875.395 867.773C875.303 867.93 875.199 868.047 875.082 868.125C874.965 868.19 874.815 868.223 874.633 868.223H873.246C872.895 868.223 872.634 868.073 872.465 867.773L865.395 855.41V874.297C865.395 874.805 864.932 875.059 864.008 875.059H863.773ZM892.914 875C892.549 875 892.283 874.915 892.113 874.746C891.944 874.577 891.859 874.316 891.859 873.965V851.738C891.859 851.374 891.944 851.113 892.113 850.957C892.283 850.788 892.549 850.703 892.914 850.703H899.125C900.818 850.703 902.243 850.957 903.402 851.465C904.561 851.973 905.434 852.689 906.02 853.613C906.605 854.538 906.898 855.612 906.898 856.836C906.898 857.591 906.723 858.346 906.371 859.102C906.02 859.844 905.551 860.488 904.965 861.035C904.379 861.569 903.754 861.927 903.09 862.109V862.246C903.09 862.155 903.539 862.331 904.438 862.773C905.336 863.203 906.143 863.848 906.859 864.707C907.589 865.553 907.953 866.654 907.953 868.008C907.953 872.669 904.932 875 898.891 875H892.914ZM898.969 861.172C899.88 861.172 900.701 860.996 901.43 860.645C902.159 860.28 902.725 859.792 903.129 859.18C903.546 858.555 903.754 857.865 903.754 857.109C903.754 855.807 903.363 854.857 902.582 854.258C901.801 853.646 900.551 853.34 898.832 853.34H894.926V861.172H898.969ZM900.004 872.363C901.527 872.363 902.706 871.966 903.539 871.172C904.372 870.365 904.789 869.264 904.789 867.871C904.789 866.582 904.333 865.586 903.422 864.883C902.51 864.167 901.169 863.809 899.398 863.809H894.926V872.363H900.004ZM913.5 875C913.135 875 912.868 874.915 912.699 874.746C912.53 874.577 912.445 874.316 912.445 873.965V851.738C912.445 851.374 912.53 851.113 912.699 850.957C912.868 850.788 913.135 850.703 913.5 850.703H925.609C925.857 850.703 926.033 850.781 926.137 850.938C926.254 851.094 926.312 851.361 926.312 851.738V852.305C926.312 852.656 926.254 852.917 926.137 853.086C926.033 853.255 925.857 853.34 925.609 853.34H915.512V861.25H924.574C924.822 861.25 924.997 861.335 925.102 861.504C925.219 861.673 925.277 861.94 925.277 862.305V862.832C925.277 863.197 925.219 863.464 925.102 863.633C924.997 863.789 924.822 863.867 924.574 863.867H915.512V872.363H925.648C925.896 872.363 926.072 872.448 926.176 872.617C926.293 872.773 926.352 873.034 926.352 873.398V873.965C926.352 874.316 926.293 874.577 926.176 874.746C926.072 874.915 925.896 875 925.648 875H913.5ZM932.836 875.059C931.898 875.059 931.43 874.805 931.43 874.297V851.738C931.43 851.374 931.514 851.113 931.684 850.957C931.853 850.788 932.12 850.703 932.484 850.703H938.324C941.098 850.703 943.181 851.191 944.574 852.168C945.98 853.145 946.684 854.701 946.684 856.836C946.684 858.281 946.332 859.499 945.629 860.488C944.939 861.465 943.962 862.201 942.699 862.695V862.832C943.376 863.066 943.93 863.522 944.359 864.199C944.802 864.863 945.29 865.853 945.824 867.168L948.539 874.023C948.604 874.258 948.637 874.421 948.637 874.512C948.637 874.876 948.148 875.059 947.172 875.059H946.82C946.469 875.059 946.163 875.013 945.902 874.922C945.655 874.818 945.499 874.681 945.434 874.512L942.797 867.695C942.458 866.81 942.061 866.12 941.605 865.625C941.15 865.13 940.609 864.785 939.984 864.59C939.359 864.395 938.572 864.297 937.621 864.297H934.496V874.297C934.496 874.805 934.034 875.059 933.109 875.059H932.836ZM939.066 861.66C939.887 861.66 940.635 861.465 941.312 861.074C942.003 860.684 942.543 860.163 942.934 859.512C943.337 858.848 943.539 858.145 943.539 857.402C943.539 856.035 943.122 855.02 942.289 854.355C941.456 853.678 940.303 853.34 938.832 853.34H934.496V861.66H939.066ZM957.758 875.195C956.482 875.195 955.29 875.059 954.184 874.785C953.09 874.499 952.211 874.16 951.547 873.77C950.896 873.366 950.57 873.001 950.57 872.676C950.57 872.493 950.642 872.253 950.785 871.953C950.941 871.654 951.117 871.387 951.312 871.152C951.508 870.918 951.664 870.801 951.781 870.801C951.885 870.801 952.113 870.905 952.465 871.113C953.272 871.53 954.073 871.875 954.867 872.148C955.661 872.422 956.625 872.559 957.758 872.559C958.643 872.559 959.431 872.389 960.121 872.051C960.811 871.712 961.345 871.237 961.723 870.625C962.113 870 962.309 869.284 962.309 868.477C962.309 867.617 962.074 866.908 961.605 866.348C961.15 865.775 960.59 865.326 959.926 865C959.275 864.661 958.324 864.245 957.074 863.75C955.72 863.229 954.646 862.747 953.852 862.305C953.07 861.849 952.4 861.191 951.84 860.332C951.293 859.473 951.02 858.333 951.02 856.914C951.02 855.677 951.339 854.57 951.977 853.594C952.615 852.604 953.52 851.836 954.691 851.289C955.863 850.742 957.211 850.469 958.734 850.469C959.424 850.469 960.212 850.566 961.098 850.762C961.983 850.944 962.738 851.198 963.363 851.523C964.001 851.849 964.32 852.207 964.32 852.598C964.32 852.767 964.249 853.001 964.105 853.301C963.975 853.587 963.819 853.848 963.637 854.082C963.454 854.316 963.311 854.434 963.207 854.434C963.09 854.434 962.855 854.336 962.504 854.141C961.918 853.828 961.339 853.581 960.766 853.398C960.193 853.203 959.496 853.105 958.676 853.105C957.335 853.105 956.247 853.451 955.414 854.141C954.594 854.831 954.184 855.794 954.184 857.031C954.184 857.773 954.366 858.385 954.73 858.867C955.095 859.349 955.557 859.733 956.117 860.02C956.677 860.306 957.458 860.638 958.461 861.016C958.526 861.029 958.676 861.081 958.91 861.172C960.29 861.706 961.417 862.227 962.289 862.734C963.174 863.229 963.923 863.945 964.535 864.883C965.16 865.82 965.473 867.018 965.473 868.477C965.473 869.844 965.154 871.035 964.516 872.051C963.891 873.066 962.992 873.848 961.82 874.395C960.661 874.928 959.307 875.195 957.758 875.195Z" fill="black"/>
<path d="M156.336 646.059C155.854 646.059 155.503 646 155.281 645.883C155.073 645.753 154.969 645.557 154.969 645.297V622.738C154.969 622.361 155.047 622.094 155.203 621.938C155.372 621.781 155.639 621.703 156.004 621.703H163.035C165.066 621.703 166.863 622.191 168.426 623.168C170.001 624.132 170.789 625.909 170.789 628.5C170.789 630.427 170.34 631.924 169.441 632.992C168.543 634.047 167.534 634.757 166.414 635.121C165.294 635.473 164.285 635.648 163.387 635.648H157.996V645.297C157.996 645.557 157.885 645.753 157.664 645.883C157.443 646 157.098 646.059 156.629 646.059H156.336ZM163.426 633.012C164.012 633.012 164.624 632.888 165.262 632.641C165.9 632.38 166.453 631.918 166.922 631.254C167.391 630.577 167.625 629.659 167.625 628.5C167.625 626.951 167.163 625.87 166.238 625.258C165.327 624.646 164.227 624.34 162.938 624.34H157.996V633.012H163.426ZM176.57 646.059C175.633 646.059 175.164 645.805 175.164 645.297V622.738C175.164 622.374 175.249 622.113 175.418 621.957C175.587 621.788 175.854 621.703 176.219 621.703H182.059C184.832 621.703 186.915 622.191 188.309 623.168C189.715 624.145 190.418 625.701 190.418 627.836C190.418 629.281 190.066 630.499 189.363 631.488C188.673 632.465 187.697 633.201 186.434 633.695V633.832C187.111 634.066 187.664 634.522 188.094 635.199C188.536 635.863 189.025 636.853 189.559 638.168L192.273 645.023C192.339 645.258 192.371 645.421 192.371 645.512C192.371 645.876 191.883 646.059 190.906 646.059H190.555C190.203 646.059 189.897 646.013 189.637 645.922C189.389 645.818 189.233 645.681 189.168 645.512L186.531 638.695C186.193 637.81 185.796 637.12 185.34 636.625C184.884 636.13 184.344 635.785 183.719 635.59C183.094 635.395 182.306 635.297 181.355 635.297H178.23V645.297C178.23 645.805 177.768 646.059 176.844 646.059H176.57ZM182.801 632.66C183.621 632.66 184.37 632.465 185.047 632.074C185.737 631.684 186.277 631.163 186.668 630.512C187.072 629.848 187.273 629.145 187.273 628.402C187.273 627.035 186.857 626.02 186.023 625.355C185.19 624.678 184.038 624.34 182.566 624.34H178.23V632.66H182.801ZM205.691 646.195C202.215 646.195 199.565 645.141 197.742 643.031C195.919 640.922 195.008 637.836 195.008 633.773C195.008 629.724 195.913 626.664 197.723 624.594C199.546 622.51 202.202 621.469 205.691 621.469C209.194 621.469 211.857 622.51 213.68 624.594C215.503 626.664 216.414 629.724 216.414 633.773C216.414 637.836 215.503 640.922 213.68 643.031C211.857 645.141 209.194 646.195 205.691 646.195ZM205.691 643.559C208.139 643.559 210.014 642.725 211.316 641.059C212.618 639.379 213.27 636.951 213.27 633.773C213.27 630.596 212.618 628.194 211.316 626.566C210.027 624.926 208.152 624.105 205.691 624.105C203.243 624.105 201.375 624.926 200.086 626.566C198.797 628.194 198.152 630.596 198.152 633.773C198.152 636.964 198.797 639.392 200.086 641.059C201.375 642.725 203.243 643.559 205.691 643.559ZM222.938 646.059C222.443 646.059 222.085 646 221.863 645.883C221.642 645.753 221.531 645.557 221.531 645.297V622.387C221.531 621.866 222 621.605 222.938 621.605H224.168C224.936 621.605 225.424 621.82 225.633 622.25L232.195 633.637L233.094 635.824L233.992 633.832L240.574 622.25C240.796 621.82 241.277 621.605 242.02 621.605H243.172C244.096 621.605 244.559 621.866 244.559 622.387V645.297C244.559 645.805 244.096 646.059 243.172 646.059H242.938C242.443 646.059 242.085 646 241.863 645.883C241.642 645.753 241.531 645.557 241.531 645.297V626.605L241.473 626.762L234.559 638.773C234.467 638.93 234.363 639.047 234.246 639.125C234.129 639.19 233.979 639.223 233.797 639.223H232.41C232.059 639.223 231.798 639.073 231.629 638.773L224.559 626.41V645.297C224.559 645.805 224.096 646.059 223.172 646.059H222.938ZM260.34 646.195C256.863 646.195 254.214 645.141 252.391 643.031C250.568 640.922 249.656 637.836 249.656 633.773C249.656 629.724 250.561 626.664 252.371 624.594C254.194 622.51 256.85 621.469 260.34 621.469C263.842 621.469 266.505 622.51 268.328 624.594C270.151 626.664 271.062 629.724 271.062 633.773C271.062 637.836 270.151 640.922 268.328 643.031C266.505 645.141 263.842 646.195 260.34 646.195ZM260.34 643.559C262.788 643.559 264.663 642.725 265.965 641.059C267.267 639.379 267.918 636.951 267.918 633.773C267.918 630.596 267.267 628.194 265.965 626.566C264.676 624.926 262.801 624.105 260.34 624.105C257.892 624.105 256.023 624.926 254.734 626.566C253.445 628.194 252.801 630.596 252.801 633.773C252.801 636.964 253.445 639.392 254.734 641.059C256.023 642.725 257.892 643.559 260.34 643.559ZM282.508 646.059C282.026 646.059 281.674 646 281.453 645.883C281.232 645.753 281.121 645.557 281.121 645.297V624.34H274.441C274.194 624.34 274.018 624.255 273.914 624.086C273.81 623.917 273.758 623.656 273.758 623.305V622.738C273.758 622.374 273.81 622.113 273.914 621.957C274.018 621.788 274.194 621.703 274.441 621.703H290.73C290.978 621.703 291.154 621.788 291.258 621.957C291.362 622.113 291.414 622.374 291.414 622.738V623.305C291.414 623.656 291.362 623.917 291.258 624.086C291.154 624.255 290.978 624.34 290.73 624.34H284.188V645.297C284.188 645.805 283.719 646.059 282.781 646.059H282.508ZM296.883 646.059C295.945 646.059 295.477 645.805 295.477 645.297V622.387C295.477 621.866 295.945 621.605 296.883 621.605H297.156C298.081 621.605 298.543 621.866 298.543 622.387V645.297C298.543 645.805 298.081 646.059 297.156 646.059H296.883ZM314.598 646.195C311.121 646.195 308.471 645.141 306.648 643.031C304.826 640.922 303.914 637.836 303.914 633.773C303.914 629.724 304.819 626.664 306.629 624.594C308.452 622.51 311.108 621.469 314.598 621.469C318.1 621.469 320.763 622.51 322.586 624.594C324.409 626.664 325.32 629.724 325.32 633.773C325.32 637.836 324.409 640.922 322.586 643.031C320.763 645.141 318.1 646.195 314.598 646.195ZM314.598 643.559C317.046 643.559 318.921 642.725 320.223 641.059C321.525 639.379 322.176 636.951 322.176 633.773C322.176 630.596 321.525 628.194 320.223 626.566C318.934 624.926 317.059 624.105 314.598 624.105C312.15 624.105 310.281 624.926 308.992 626.566C307.703 628.194 307.059 630.596 307.059 633.773C307.059 636.964 307.703 639.392 308.992 641.059C310.281 642.725 312.15 643.559 314.598 643.559ZM331.844 646.059C331.349 646.059 330.991 646 330.77 645.883C330.548 645.753 330.438 645.557 330.438 645.297V622.387C330.438 621.866 330.906 621.605 331.844 621.605H332.566C332.931 621.605 333.217 621.658 333.426 621.762C333.647 621.866 333.842 622.035 334.012 622.27L345.105 639.008L346.141 640.961V622.387C346.141 621.866 346.596 621.605 347.508 621.605H347.781C348.693 621.605 349.148 621.866 349.148 622.387V645.297C349.148 645.557 349.038 645.753 348.816 645.883C348.595 646 348.25 646.059 347.781 646.059H347.078C346.753 646.059 346.492 646.02 346.297 645.941C346.102 645.863 345.952 645.74 345.848 645.57L334.402 628.305L333.465 626.508V645.297C333.465 645.805 333.003 646.059 332.078 646.059H331.844ZM365.047 646C364.682 646 364.415 645.915 364.246 645.746C364.077 645.577 363.992 645.316 363.992 644.965V622.738C363.992 622.374 364.077 622.113 364.246 621.957C364.415 621.788 364.682 621.703 365.047 621.703H372.059C375.314 621.703 377.918 622.667 379.871 624.594C381.824 626.521 382.801 629.6 382.801 633.832C382.801 638.09 381.824 641.182 379.871 643.109C377.918 645.036 375.314 646 372.059 646H365.047ZM371.824 643.363C374.168 643.363 376.056 642.602 377.488 641.078C378.921 639.542 379.637 637.126 379.637 633.832C379.637 631.618 379.298 629.809 378.621 628.402C377.944 626.983 377.02 625.954 375.848 625.316C374.676 624.665 373.335 624.34 371.824 624.34H367.059V643.363H371.824ZM389.539 646.059C388.602 646.059 388.133 645.805 388.133 645.297V622.387C388.133 621.866 388.602 621.605 389.539 621.605H389.812C390.737 621.605 391.199 621.866 391.199 622.387V645.297C391.199 645.805 390.737 646.059 389.812 646.059H389.539ZM399.344 646.059C398.406 646.059 397.938 645.805 397.938 645.297V622.738C397.938 622.374 398.022 622.113 398.191 621.957C398.361 621.788 398.628 621.703 398.992 621.703H404.832C407.605 621.703 409.689 622.191 411.082 623.168C412.488 624.145 413.191 625.701 413.191 627.836C413.191 629.281 412.84 630.499 412.137 631.488C411.447 632.465 410.47 633.201 409.207 633.695V633.832C409.884 634.066 410.438 634.522 410.867 635.199C411.31 635.863 411.798 636.853 412.332 638.168L415.047 645.023C415.112 645.258 415.145 645.421 415.145 645.512C415.145 645.876 414.656 646.059 413.68 646.059H413.328C412.977 646.059 412.671 646.013 412.41 645.922C412.163 645.818 412.007 645.681 411.941 645.512L409.305 638.695C408.966 637.81 408.569 637.12 408.113 636.625C407.658 636.13 407.117 635.785 406.492 635.59C405.867 635.395 405.079 635.297 404.129 635.297H401.004V645.297C401.004 645.805 400.542 646.059 399.617 646.059H399.344ZM405.574 632.66C406.395 632.66 407.143 632.465 407.82 632.074C408.51 631.684 409.051 631.163 409.441 630.512C409.845 629.848 410.047 629.145 410.047 628.402C410.047 627.035 409.63 626.02 408.797 625.355C407.964 624.678 406.811 624.34 405.34 624.34H401.004V632.66H405.574ZM420.203 646C419.839 646 419.572 645.915 419.402 645.746C419.233 645.577 419.148 645.316 419.148 644.965V622.738C419.148 622.374 419.233 622.113 419.402 621.957C419.572 621.788 419.839 621.703 420.203 621.703H432.312C432.56 621.703 432.736 621.781 432.84 621.938C432.957 622.094 433.016 622.361 433.016 622.738V623.305C433.016 623.656 432.957 623.917 432.84 624.086C432.736 624.255 432.56 624.34 432.312 624.34H422.215V632.25H431.277C431.525 632.25 431.701 632.335 431.805 632.504C431.922 632.673 431.98 632.94 431.98 633.305V633.832C431.98 634.197 431.922 634.464 431.805 634.633C431.701 634.789 431.525 634.867 431.277 634.867H422.215V643.363H432.352C432.599 643.363 432.775 643.448 432.879 643.617C432.996 643.773 433.055 644.034 433.055 644.398V644.965C433.055 645.316 432.996 645.577 432.879 645.746C432.775 645.915 432.599 646 432.352 646H420.203ZM447.938 646.195C444.135 646.195 441.323 645.193 439.5 643.188C437.677 641.182 436.766 638.064 436.766 633.832C436.766 625.59 440.509 621.469 447.996 621.469C449.09 621.469 450.151 621.586 451.18 621.82C452.208 622.042 453.042 622.322 453.68 622.66C454.318 622.999 454.637 623.324 454.637 623.637C454.637 623.832 454.565 624.092 454.422 624.418C454.292 624.743 454.135 625.03 453.953 625.277C453.771 625.525 453.608 625.648 453.465 625.648C453.4 625.648 453.217 625.564 452.918 625.395C452.241 625.03 451.531 624.724 450.789 624.477C450.047 624.229 449.142 624.105 448.074 624.105C445.275 624.105 443.211 624.887 441.883 626.449C440.568 627.999 439.91 630.473 439.91 633.871C439.91 637.191 440.561 639.639 441.863 641.215C443.178 642.777 445.203 643.559 447.938 643.559C449.083 643.559 450.066 643.422 450.887 643.148C451.707 642.875 452.495 642.536 453.25 642.133C453.615 641.938 453.836 641.84 453.914 641.84C454.057 641.84 454.22 641.964 454.402 642.211C454.598 642.458 454.767 642.738 454.91 643.051C455.053 643.35 455.125 643.565 455.125 643.695C455.125 644.021 454.793 644.385 454.129 644.789C453.478 645.18 452.599 645.512 451.492 645.785C450.398 646.059 449.214 646.195 447.938 646.195ZM465.75 646.059C465.268 646.059 464.917 646 464.695 645.883C464.474 645.753 464.363 645.557 464.363 645.297V624.34H457.684C457.436 624.34 457.26 624.255 457.156 624.086C457.052 623.917 457 623.656 457 623.305V622.738C457 622.374 457.052 622.113 457.156 621.957C457.26 621.788 457.436 621.703 457.684 621.703H473.973C474.22 621.703 474.396 621.788 474.5 621.957C474.604 622.113 474.656 622.374 474.656 622.738V623.305C474.656 623.656 474.604 623.917 474.5 624.086C474.396 624.255 474.22 624.34 473.973 624.34H467.43V645.297C467.43 645.805 466.961 646.059 466.023 646.059H465.75ZM480.125 646.059C479.188 646.059 478.719 645.805 478.719 645.297V622.387C478.719 621.866 479.188 621.605 480.125 621.605H480.398C481.323 621.605 481.785 621.866 481.785 622.387V645.297C481.785 645.805 481.323 646.059 480.398 646.059H480.125ZM497.84 646.195C494.363 646.195 491.714 645.141 489.891 643.031C488.068 640.922 487.156 637.836 487.156 633.773C487.156 629.724 488.061 626.664 489.871 624.594C491.694 622.51 494.35 621.469 497.84 621.469C501.342 621.469 504.005 622.51 505.828 624.594C507.651 626.664 508.562 629.724 508.562 633.773C508.562 637.836 507.651 640.922 505.828 643.031C504.005 645.141 501.342 646.195 497.84 646.195ZM497.84 643.559C500.288 643.559 502.163 642.725 503.465 641.059C504.767 639.379 505.418 636.951 505.418 633.773C505.418 630.596 504.767 628.194 503.465 626.566C502.176 624.926 500.301 624.105 497.84 624.105C495.392 624.105 493.523 624.926 492.234 626.566C490.945 628.194 490.301 630.596 490.301 633.773C490.301 636.964 490.945 639.392 492.234 641.059C493.523 642.725 495.392 643.559 497.84 643.559ZM515.32 646.059C514.383 646.059 513.914 645.805 513.914 645.297V622.738C513.914 622.374 513.999 622.113 514.168 621.957C514.337 621.788 514.604 621.703 514.969 621.703H520.809C523.582 621.703 525.665 622.191 527.059 623.168C528.465 624.145 529.168 625.701 529.168 627.836C529.168 629.281 528.816 630.499 528.113 631.488C527.423 632.465 526.447 633.201 525.184 633.695V633.832C525.861 634.066 526.414 634.522 526.844 635.199C527.286 635.863 527.775 636.853 528.309 638.168L531.023 645.023C531.089 645.258 531.121 645.421 531.121 645.512C531.121 645.876 530.633 646.059 529.656 646.059H529.305C528.953 646.059 528.647 646.013 528.387 645.922C528.139 645.818 527.983 645.681 527.918 645.512L525.281 638.695C524.943 637.81 524.546 637.12 524.09 636.625C523.634 636.13 523.094 635.785 522.469 635.59C521.844 635.395 521.056 635.297 520.105 635.297H516.98V645.297C516.98 645.805 516.518 646.059 515.594 646.059H515.32ZM521.551 632.66C522.371 632.66 523.12 632.465 523.797 632.074C524.487 631.684 525.027 631.163 525.418 630.512C525.822 629.848 526.023 629.145 526.023 628.402C526.023 627.035 525.607 626.02 524.773 625.355C523.94 624.678 522.788 624.34 521.316 624.34H516.98V632.66H521.551Z" fill="black"/>
<path d="M1251.34 646.059C1250.85 646.059 1250.5 646 1250.28 645.883C1250.07 645.753 1249.97 645.557 1249.97 645.297V622.738C1249.97 622.361 1250.05 622.094 1250.2 621.938C1250.37 621.781 1250.64 621.703 1251 621.703H1258.04C1260.07 621.703 1261.86 622.191 1263.43 623.168C1265 624.132 1265.79 625.909 1265.79 628.5C1265.79 630.427 1265.34 631.924 1264.44 632.992C1263.54 634.047 1262.53 634.757 1261.41 635.121C1260.29 635.473 1259.29 635.648 1258.39 635.648H1253V645.297C1253 645.557 1252.89 645.753 1252.66 645.883C1252.44 646 1252.1 646.059 1251.63 646.059H1251.34ZM1258.43 633.012C1259.01 633.012 1259.62 632.888 1260.26 632.641C1260.9 632.38 1261.45 631.918 1261.92 631.254C1262.39 630.577 1262.62 629.659 1262.62 628.5C1262.62 626.951 1262.16 625.87 1261.24 625.258C1260.33 624.646 1259.23 624.34 1257.94 624.34H1253V633.012H1258.43ZM1271.57 646.059C1270.63 646.059 1270.16 645.805 1270.16 645.297V622.738C1270.16 622.374 1270.25 622.113 1270.42 621.957C1270.59 621.788 1270.85 621.703 1271.22 621.703H1277.06C1279.83 621.703 1281.92 622.191 1283.31 623.168C1284.71 624.145 1285.42 625.701 1285.42 627.836C1285.42 629.281 1285.07 630.499 1284.36 631.488C1283.67 632.465 1282.7 633.201 1281.43 633.695V633.832C1282.11 634.066 1282.66 634.522 1283.09 635.199C1283.54 635.863 1284.02 636.853 1284.56 638.168L1287.27 645.023C1287.34 645.258 1287.37 645.421 1287.37 645.512C1287.37 645.876 1286.88 646.059 1285.91 646.059H1285.55C1285.2 646.059 1284.9 646.013 1284.64 645.922C1284.39 645.818 1284.23 645.681 1284.17 645.512L1281.53 638.695C1281.19 637.81 1280.8 637.12 1280.34 636.625C1279.88 636.13 1279.34 635.785 1278.72 635.59C1278.09 635.395 1277.31 635.297 1276.36 635.297H1273.23V645.297C1273.23 645.805 1272.77 646.059 1271.84 646.059H1271.57ZM1277.8 632.66C1278.62 632.66 1279.37 632.465 1280.05 632.074C1280.74 631.684 1281.28 631.163 1281.67 630.512C1282.07 629.848 1282.27 629.145 1282.27 628.402C1282.27 627.035 1281.86 626.02 1281.02 625.355C1280.19 624.678 1279.04 624.34 1277.57 624.34H1273.23V632.66H1277.8ZM1300.69 646.195C1297.21 646.195 1294.57 645.141 1292.74 643.031C1290.92 640.922 1290.01 637.836 1290.01 633.773C1290.01 629.724 1290.91 626.664 1292.72 624.594C1294.55 622.51 1297.2 621.469 1300.69 621.469C1304.19 621.469 1306.86 622.51 1308.68 624.594C1310.5 626.664 1311.41 629.724 1311.41 633.773C1311.41 637.836 1310.5 640.922 1308.68 643.031C1306.86 645.141 1304.19 646.195 1300.69 646.195ZM1300.69 643.559C1303.14 643.559 1305.01 642.725 1306.32 641.059C1307.62 639.379 1308.27 636.951 1308.27 633.773C1308.27 630.596 1307.62 628.194 1306.32 626.566C1305.03 624.926 1303.15 624.105 1300.69 624.105C1298.24 624.105 1296.38 624.926 1295.09 626.566C1293.8 628.194 1293.15 630.596 1293.15 633.773C1293.15 636.964 1293.8 639.392 1295.09 641.059C1296.38 642.725 1298.24 643.559 1300.69 643.559ZM1317.82 646C1317.46 646 1317.19 645.915 1317.02 645.746C1316.85 645.577 1316.77 645.316 1316.77 644.965V622.738C1316.77 622.374 1316.85 622.113 1317.02 621.957C1317.19 621.788 1317.46 621.703 1317.82 621.703H1324.83C1328.09 621.703 1330.69 622.667 1332.64 624.594C1334.6 626.521 1335.57 629.6 1335.57 633.832C1335.57 638.09 1334.6 641.182 1332.64 643.109C1330.69 645.036 1328.09 646 1324.83 646H1317.82ZM1324.6 643.363C1326.94 643.363 1328.83 642.602 1330.26 641.078C1331.69 639.542 1332.41 637.126 1332.41 633.832C1332.41 631.618 1332.07 629.809 1331.39 628.402C1330.72 626.983 1329.79 625.954 1328.62 625.316C1327.45 624.665 1326.11 624.34 1324.6 624.34H1319.83V643.363H1324.6ZM1349.91 646.195C1347.89 646.195 1346.17 645.883 1344.75 645.258C1343.33 644.62 1342.26 643.702 1341.53 642.504C1340.8 641.306 1340.44 639.874 1340.44 638.207V622.387C1340.44 621.866 1340.9 621.605 1341.82 621.605H1342.1C1343.02 621.605 1343.48 621.866 1343.48 622.387V638.324C1343.48 639.34 1343.76 640.245 1344.32 641.039C1344.88 641.833 1345.65 642.452 1346.63 642.895C1347.61 643.337 1348.7 643.559 1349.91 643.559C1351.13 643.559 1352.23 643.337 1353.21 642.895C1354.19 642.439 1354.95 641.814 1355.5 641.02C1356.06 640.225 1356.34 639.327 1356.34 638.324V622.387C1356.34 621.866 1356.8 621.605 1357.72 621.605H1358.02C1358.93 621.605 1359.38 621.866 1359.38 622.387V638.207C1359.38 639.874 1359.02 641.306 1358.29 642.504C1357.56 643.702 1356.49 644.62 1355.07 645.258C1353.65 645.883 1351.93 646.195 1349.91 646.195ZM1375.44 646.195C1371.64 646.195 1368.82 645.193 1367 643.188C1365.18 641.182 1364.27 638.064 1364.27 633.832C1364.27 625.59 1368.01 621.469 1375.5 621.469C1376.59 621.469 1377.65 621.586 1378.68 621.82C1379.71 622.042 1380.54 622.322 1381.18 622.66C1381.82 622.999 1382.14 623.324 1382.14 623.637C1382.14 623.832 1382.07 624.092 1381.92 624.418C1381.79 624.743 1381.64 625.03 1381.45 625.277C1381.27 625.525 1381.11 625.648 1380.96 625.648C1380.9 625.648 1380.72 625.564 1380.42 625.395C1379.74 625.03 1379.03 624.724 1378.29 624.477C1377.55 624.229 1376.64 624.105 1375.57 624.105C1372.77 624.105 1370.71 624.887 1369.38 626.449C1368.07 627.999 1367.41 630.473 1367.41 633.871C1367.41 637.191 1368.06 639.639 1369.36 641.215C1370.68 642.777 1372.7 643.559 1375.44 643.559C1376.58 643.559 1377.57 643.422 1378.39 643.148C1379.21 642.875 1379.99 642.536 1380.75 642.133C1381.11 641.938 1381.34 641.84 1381.41 641.84C1381.56 641.84 1381.72 641.964 1381.9 642.211C1382.1 642.458 1382.27 642.738 1382.41 643.051C1382.55 643.35 1382.62 643.565 1382.62 643.695C1382.62 644.021 1382.29 644.385 1381.63 644.789C1380.98 645.18 1380.1 645.512 1378.99 645.785C1377.9 646.059 1376.71 646.195 1375.44 646.195ZM1393.25 646.059C1392.77 646.059 1392.42 646 1392.2 645.883C1391.97 645.753 1391.86 645.557 1391.86 645.297V624.34H1385.18C1384.94 624.34 1384.76 624.255 1384.66 624.086C1384.55 623.917 1384.5 623.656 1384.5 623.305V622.738C1384.5 622.374 1384.55 622.113 1384.66 621.957C1384.76 621.788 1384.94 621.703 1385.18 621.703H1401.47C1401.72 621.703 1401.9 621.788 1402 621.957C1402.1 622.113 1402.16 622.374 1402.16 622.738V623.305C1402.16 623.656 1402.1 623.917 1402 624.086C1401.9 624.255 1401.72 624.34 1401.47 624.34H1394.93V645.297C1394.93 645.805 1394.46 646.059 1393.52 646.059H1393.25ZM1407.62 646.059C1406.69 646.059 1406.22 645.805 1406.22 645.297V622.387C1406.22 621.866 1406.69 621.605 1407.62 621.605H1407.9C1408.82 621.605 1409.29 621.866 1409.29 622.387V645.297C1409.29 645.805 1408.82 646.059 1407.9 646.059H1407.62ZM1425.34 646.195C1421.86 646.195 1419.21 645.141 1417.39 643.031C1415.57 640.922 1414.66 637.836 1414.66 633.773C1414.66 629.724 1415.56 626.664 1417.37 624.594C1419.19 622.51 1421.85 621.469 1425.34 621.469C1428.84 621.469 1431.51 622.51 1433.33 624.594C1435.15 626.664 1436.06 629.724 1436.06 633.773C1436.06 637.836 1435.15 640.922 1433.33 643.031C1431.51 645.141 1428.84 646.195 1425.34 646.195ZM1425.34 643.559C1427.79 643.559 1429.66 642.725 1430.96 641.059C1432.27 639.379 1432.92 636.951 1432.92 633.773C1432.92 630.596 1432.27 628.194 1430.96 626.566C1429.68 624.926 1427.8 624.105 1425.34 624.105C1422.89 624.105 1421.02 624.926 1419.73 626.566C1418.45 628.194 1417.8 630.596 1417.8 633.773C1417.8 636.964 1418.45 639.392 1419.73 641.059C1421.02 642.725 1422.89 643.559 1425.34 643.559ZM1442.59 646.059C1442.09 646.059 1441.73 646 1441.51 645.883C1441.29 645.753 1441.18 645.557 1441.18 645.297V622.387C1441.18 621.866 1441.65 621.605 1442.59 621.605H1443.31C1443.67 621.605 1443.96 621.658 1444.17 621.762C1444.39 621.866 1444.58 622.035 1444.75 622.27L1455.85 639.008L1456.88 640.961V622.387C1456.88 621.866 1457.34 621.605 1458.25 621.605H1458.52C1459.43 621.605 1459.89 621.866 1459.89 622.387V645.297C1459.89 645.557 1459.78 645.753 1459.56 645.883C1459.34 646 1458.99 646.059 1458.52 646.059H1457.82C1457.49 646.059 1457.23 646.02 1457.04 645.941C1456.84 645.863 1456.69 645.74 1456.59 645.57L1445.14 628.305L1444.21 626.508V645.297C1444.21 645.805 1443.74 646.059 1442.82 646.059H1442.59ZM1475.79 646C1475.42 646 1475.16 645.915 1474.99 645.746C1474.82 645.577 1474.73 645.316 1474.73 644.965V622.738C1474.73 622.374 1474.82 622.113 1474.99 621.957C1475.16 621.788 1475.42 621.703 1475.79 621.703H1482.8C1486.06 621.703 1488.66 622.667 1490.61 624.594C1492.57 626.521 1493.54 629.6 1493.54 633.832C1493.54 638.09 1492.57 641.182 1490.61 643.109C1488.66 645.036 1486.06 646 1482.8 646H1475.79ZM1482.57 643.363C1484.91 643.363 1486.8 642.602 1488.23 641.078C1489.66 639.542 1490.38 637.126 1490.38 633.832C1490.38 631.618 1490.04 629.809 1489.36 628.402C1488.69 626.983 1487.76 625.954 1486.59 625.316C1485.42 624.665 1484.08 624.34 1482.57 624.34H1477.8V643.363H1482.57ZM1500.28 646.059C1499.34 646.059 1498.88 645.805 1498.88 645.297V622.387C1498.88 621.866 1499.34 621.605 1500.28 621.605H1500.55C1501.48 621.605 1501.94 621.866 1501.94 622.387V645.297C1501.94 645.805 1501.48 646.059 1500.55 646.059H1500.28ZM1510.09 646.059C1509.15 646.059 1508.68 645.805 1508.68 645.297V622.738C1508.68 622.374 1508.76 622.113 1508.93 621.957C1509.1 621.788 1509.37 621.703 1509.73 621.703H1515.57C1518.35 621.703 1520.43 622.191 1521.82 623.168C1523.23 624.145 1523.93 625.701 1523.93 627.836C1523.93 629.281 1523.58 630.499 1522.88 631.488C1522.19 632.465 1521.21 633.201 1519.95 633.695V633.832C1520.63 634.066 1521.18 634.522 1521.61 635.199C1522.05 635.863 1522.54 636.853 1523.07 638.168L1525.79 645.023C1525.85 645.258 1525.89 645.421 1525.89 645.512C1525.89 645.876 1525.4 646.059 1524.42 646.059H1524.07C1523.72 646.059 1523.41 646.013 1523.15 645.922C1522.9 645.818 1522.75 645.681 1522.68 645.512L1520.05 638.695C1519.71 637.81 1519.31 637.12 1518.86 636.625C1518.4 636.13 1517.86 635.785 1517.23 635.59C1516.61 635.395 1515.82 635.297 1514.87 635.297H1511.75V645.297C1511.75 645.805 1511.28 646.059 1510.36 646.059H1510.09ZM1516.32 632.66C1517.14 632.66 1517.89 632.465 1518.56 632.074C1519.25 631.684 1519.79 631.163 1520.18 630.512C1520.59 629.848 1520.79 629.145 1520.79 628.402C1520.79 627.035 1520.37 626.02 1519.54 625.355C1518.71 624.678 1517.55 624.34 1516.08 624.34H1511.75V632.66H1516.32ZM1530.95 646C1530.58 646 1530.31 645.915 1530.14 645.746C1529.98 645.577 1529.89 645.316 1529.89 644.965V622.738C1529.89 622.374 1529.98 622.113 1530.14 621.957C1530.31 621.788 1530.58 621.703 1530.95 621.703H1543.05C1543.3 621.703 1543.48 621.781 1543.58 621.938C1543.7 622.094 1543.76 622.361 1543.76 622.738V623.305C1543.76 623.656 1543.7 623.917 1543.58 624.086C1543.48 624.255 1543.3 624.34 1543.05 624.34H1532.96V632.25H1542.02C1542.27 632.25 1542.44 632.335 1542.55 632.504C1542.66 632.673 1542.72 632.94 1542.72 633.305V633.832C1542.72 634.197 1542.66 634.464 1542.55 634.633C1542.44 634.789 1542.27 634.867 1542.02 634.867H1532.96V643.363H1543.09C1543.34 643.363 1543.52 643.448 1543.62 643.617C1543.74 643.773 1543.8 644.034 1543.8 644.398V644.965C1543.8 645.316 1543.74 645.577 1543.62 645.746C1543.52 645.915 1543.34 646 1543.09 646H1530.95ZM1558.68 646.195C1554.88 646.195 1552.07 645.193 1550.24 643.188C1548.42 641.182 1547.51 638.064 1547.51 633.832C1547.51 625.59 1551.25 621.469 1558.74 621.469C1559.83 621.469 1560.89 621.586 1561.92 621.82C1562.95 622.042 1563.78 622.322 1564.42 622.66C1565.06 622.999 1565.38 623.324 1565.38 623.637C1565.38 623.832 1565.31 624.092 1565.16 624.418C1565.03 624.743 1564.88 625.03 1564.7 625.277C1564.51 625.525 1564.35 625.648 1564.21 625.648C1564.14 625.648 1563.96 625.564 1563.66 625.395C1562.98 625.03 1562.27 624.724 1561.53 624.477C1560.79 624.229 1559.88 624.105 1558.82 624.105C1556.02 624.105 1553.95 624.887 1552.62 626.449C1551.31 627.999 1550.65 630.473 1550.65 633.871C1550.65 637.191 1551.3 639.639 1552.61 641.215C1553.92 642.777 1555.95 643.559 1558.68 643.559C1559.83 643.559 1560.81 643.422 1561.63 643.148C1562.45 642.875 1563.24 642.536 1563.99 642.133C1564.36 641.938 1564.58 641.84 1564.66 641.84C1564.8 641.84 1564.96 641.964 1565.14 642.211C1565.34 642.458 1565.51 642.738 1565.65 643.051C1565.8 643.35 1565.87 643.565 1565.87 643.695C1565.87 644.021 1565.54 644.385 1564.87 644.789C1564.22 645.18 1563.34 645.512 1562.23 645.785C1561.14 646.059 1559.96 646.195 1558.68 646.195ZM1576.49 646.059C1576.01 646.059 1575.66 646 1575.44 645.883C1575.22 645.753 1575.11 645.557 1575.11 645.297V624.34H1568.43C1568.18 624.34 1568 624.255 1567.9 624.086C1567.79 623.917 1567.74 623.656 1567.74 623.305V622.738C1567.74 622.374 1567.79 622.113 1567.9 621.957C1568 621.788 1568.18 621.703 1568.43 621.703H1584.71C1584.96 621.703 1585.14 621.788 1585.24 621.957C1585.35 622.113 1585.4 622.374 1585.4 622.738V623.305C1585.4 623.656 1585.35 623.917 1585.24 624.086C1585.14 624.255 1584.96 624.34 1584.71 624.34H1578.17V645.297C1578.17 645.805 1577.7 646.059 1576.77 646.059H1576.49ZM1590.87 646.059C1589.93 646.059 1589.46 645.805 1589.46 645.297V622.387C1589.46 621.866 1589.93 621.605 1590.87 621.605H1591.14C1592.07 621.605 1592.53 621.866 1592.53 622.387V645.297C1592.53 645.805 1592.07 646.059 1591.14 646.059H1590.87ZM1608.58 646.195C1605.11 646.195 1602.46 645.141 1600.63 643.031C1598.81 640.922 1597.9 637.836 1597.9 633.773C1597.9 629.724 1598.8 626.664 1600.61 624.594C1602.44 622.51 1605.09 621.469 1608.58 621.469C1612.08 621.469 1614.75 622.51 1616.57 624.594C1618.39 626.664 1619.3 629.724 1619.3 633.773C1619.3 637.836 1618.39 640.922 1616.57 643.031C1614.75 645.141 1612.08 646.195 1608.58 646.195ZM1608.58 643.559C1611.03 643.559 1612.9 642.725 1614.21 641.059C1615.51 639.379 1616.16 636.951 1616.16 633.773C1616.16 630.596 1615.51 628.194 1614.21 626.566C1612.92 624.926 1611.04 624.105 1608.58 624.105C1606.13 624.105 1604.27 624.926 1602.98 626.566C1601.69 628.194 1601.04 630.596 1601.04 633.773C1601.04 636.964 1601.69 639.392 1602.98 641.059C1604.27 642.725 1606.13 643.559 1608.58 643.559ZM1626.06 646.059C1625.12 646.059 1624.66 645.805 1624.66 645.297V622.738C1624.66 622.374 1624.74 622.113 1624.91 621.957C1625.08 621.788 1625.35 621.703 1625.71 621.703H1631.55C1634.32 621.703 1636.41 622.191 1637.8 623.168C1639.21 624.145 1639.91 625.701 1639.91 627.836C1639.91 629.281 1639.56 630.499 1638.86 631.488C1638.17 632.465 1637.19 633.201 1635.93 633.695V633.832C1636.6 634.066 1637.16 634.522 1637.59 635.199C1638.03 635.863 1638.52 636.853 1639.05 638.168L1641.77 645.023C1641.83 645.258 1641.86 645.421 1641.86 645.512C1641.86 645.876 1641.38 646.059 1640.4 646.059H1640.05C1639.7 646.059 1639.39 646.013 1639.13 645.922C1638.88 645.818 1638.73 645.681 1638.66 645.512L1636.02 638.695C1635.68 637.81 1635.29 637.12 1634.83 636.625C1634.38 636.13 1633.84 635.785 1633.21 635.59C1632.59 635.395 1631.8 635.297 1630.85 635.297H1627.72V645.297C1627.72 645.805 1627.26 646.059 1626.34 646.059H1626.06ZM1632.29 632.66C1633.11 632.66 1633.86 632.465 1634.54 632.074C1635.23 631.684 1635.77 631.163 1636.16 630.512C1636.56 629.848 1636.77 629.145 1636.77 628.402C1636.77 627.035 1636.35 626.02 1635.52 625.355C1634.68 624.678 1633.53 624.34 1632.06 624.34H1627.72V632.66H1632.29Z" fill="black"/>
</g>
<defs>
<filter id="filter0_d_71_3" x="0" y="21.4688" width="1776" height="1147.53" filterUnits="userSpaceOnUse" color-interpolation-filters="sRGB">
<feFlood flood-opacity="0" result="BackgroundImageFix"/>
<feColorMatrix in="SourceAlpha" type="matrix" values="0 0 0 0 0 0 0 0 0 0 0 0 0 0 0 0 0 0 127 0" result="hardAlpha"/>
<feOffset dy="4"/>
<feGaussianBlur stdDeviation="2"/>
<feComposite in2="hardAlpha" operator="out"/>
<feColorMatrix type="matrix" values="0 0 0 0 0 0 0 0 0 0 0 0 0 0 0 0 0 0 0.25 0"/>
<feBlend mode="normal" in2="BackgroundImageFix" result="effect1_dropShadow_71_3"/>
<feBlend mode="normal" in="SourceGraphic" in2="effect1_dropShadow_71_3" result="shape"/>
</filter>
</defs>
</svg>
